<mxfile host="app.diagrams.net" modified="2022-05-30T11:19:03.337Z" agent="5.0 (Windows NT 10.0; Win64; x64) AppleWebKit/537.36 (KHTML, like Gecko) Chrome/101.0.4951.67 Safari/537.36" etag="XXWKrtJKkgQkqI6fH3-V" version="18.1.3" type="github" pages="2">
  <diagram id="tCjOHd1AOHYK8ctcOkT3" name="Page-1">
    <mxGraphModel dx="1185" dy="635" grid="1" gridSize="5" guides="1" tooltips="1" connect="1" arrows="1" fold="1" page="0" pageScale="1" pageWidth="827" pageHeight="1169" math="0" shadow="0">
      <root>
        <mxCell id="0" />
        <mxCell id="1" parent="0" />
        <mxCell id="u_qnulU21Ccd_IEKLZmD-1" value="Service Discovery&lt;br&gt;Eureka Server&lt;br&gt;8761" style="rounded=0;whiteSpace=wrap;html=1;" parent="1" vertex="1">
          <mxGeometry x="300" y="240" width="160" height="80" as="geometry" />
        </mxCell>
        <mxCell id="0uWgaXjeywN7YIeMeXA3-5" value="" style="edgeStyle=orthogonalEdgeStyle;rounded=0;orthogonalLoop=1;jettySize=auto;html=1;exitX=0.5;exitY=1;exitDx=0;exitDy=0;strokeColor=#00CC00;startArrow=classic;startFill=1;" parent="1" source="0uWgaXjeywN7YIeMeXA3-12" target="u_qnulU21Ccd_IEKLZmD-4" edge="1">
          <mxGeometry relative="1" as="geometry" />
        </mxCell>
        <mxCell id="0uWgaXjeywN7YIeMeXA3-10" value="" style="edgeStyle=none;rounded=0;orthogonalLoop=1;jettySize=auto;html=1;startArrow=classic;startFill=1;strokeColor=#FF8000;" parent="1" source="u_qnulU21Ccd_IEKLZmD-2" target="0uWgaXjeywN7YIeMeXA3-8" edge="1">
          <mxGeometry relative="1" as="geometry" />
        </mxCell>
        <mxCell id="u_qnulU21Ccd_IEKLZmD-2" value="MicroService&lt;br&gt;Application 2&lt;br&gt;8082" style="rounded=0;whiteSpace=wrap;html=1;" parent="1" vertex="1">
          <mxGeometry x="760" y="415" width="160" height="80" as="geometry" />
        </mxCell>
        <mxCell id="0uWgaXjeywN7YIeMeXA3-4" style="edgeStyle=orthogonalEdgeStyle;rounded=0;orthogonalLoop=1;jettySize=auto;html=1;exitX=0;exitY=0.5;exitDx=0;exitDy=0;entryX=1;entryY=0.5;entryDx=0;entryDy=0;strokeColor=#0000FF;startArrow=classic;startFill=1;" parent="1" source="u_qnulU21Ccd_IEKLZmD-3" target="u_qnulU21Ccd_IEKLZmD-1" edge="1">
          <mxGeometry relative="1" as="geometry" />
        </mxCell>
        <mxCell id="LcAdzvYWBtJncnAksIGm-1" value="" style="edgeStyle=orthogonalEdgeStyle;curved=1;rounded=0;orthogonalLoop=1;jettySize=auto;html=1;" edge="1" parent="1" source="u_qnulU21Ccd_IEKLZmD-3" target="0uWgaXjeywN7YIeMeXA3-12">
          <mxGeometry relative="1" as="geometry" />
        </mxCell>
        <mxCell id="u_qnulU21Ccd_IEKLZmD-3" value="API Gateway&lt;br&gt;Spring Cloud&amp;nbsp;Gateway&lt;br&gt;80" style="rounded=0;whiteSpace=wrap;html=1;" parent="1" vertex="1">
          <mxGeometry x="540" y="240" width="160" height="80" as="geometry" />
        </mxCell>
        <mxCell id="u_qnulU21Ccd_IEKLZmD-4" value="DB" style="shape=cylinder3;whiteSpace=wrap;html=1;boundedLbl=1;backgroundOutline=1;size=15;" parent="1" vertex="1">
          <mxGeometry x="650" y="575" width="160" height="80" as="geometry" />
        </mxCell>
        <mxCell id="0uWgaXjeywN7YIeMeXA3-2" value="" style="edgeStyle=orthogonalEdgeStyle;rounded=0;orthogonalLoop=1;jettySize=auto;html=1;strokeColor=#000000;" parent="1" source="0uWgaXjeywN7YIeMeXA3-1" target="u_qnulU21Ccd_IEKLZmD-3" edge="1">
          <mxGeometry relative="1" as="geometry" />
        </mxCell>
        <mxCell id="0uWgaXjeywN7YIeMeXA3-1" value="&lt;br&gt;" style="shape=umlActor;verticalLabelPosition=bottom;verticalAlign=top;html=1;outlineConnect=0;" parent="1" vertex="1">
          <mxGeometry x="605" y="120" width="30" height="60" as="geometry" />
        </mxCell>
        <mxCell id="0uWgaXjeywN7YIeMeXA3-11" style="edgeStyle=orthogonalEdgeStyle;rounded=0;orthogonalLoop=1;jettySize=auto;html=1;entryX=0.5;entryY=1;entryDx=0;entryDy=0;startArrow=classic;startFill=1;strokeColor=#0000FF;exitX=0;exitY=0.5;exitDx=0;exitDy=0;curved=1;" parent="1" source="0uWgaXjeywN7YIeMeXA3-12" target="u_qnulU21Ccd_IEKLZmD-1" edge="1">
          <mxGeometry relative="1" as="geometry">
            <mxPoint x="380" y="350" as="sourcePoint" />
          </mxGeometry>
        </mxCell>
        <mxCell id="0uWgaXjeywN7YIeMeXA3-8" value="MicroService&lt;br&gt;Application 1&lt;br&gt;8081" style="rounded=0;whiteSpace=wrap;html=1;" parent="1" vertex="1">
          <mxGeometry x="540" y="415" width="160" height="80" as="geometry" />
        </mxCell>
        <mxCell id="0uWgaXjeywN7YIeMeXA3-12" value="Application Layer" style="swimlane;" parent="1" vertex="1">
          <mxGeometry x="520" y="370" width="420" height="145" as="geometry" />
        </mxCell>
        <mxCell id="LcAdzvYWBtJncnAksIGm-3" value="" style="endArrow=classic;html=1;rounded=0;curved=1;" edge="1" parent="1">
          <mxGeometry width="50" height="50" relative="1" as="geometry">
            <mxPoint x="760" y="180" as="sourcePoint" />
            <mxPoint x="800" y="180" as="targetPoint" />
          </mxGeometry>
        </mxCell>
        <mxCell id="LcAdzvYWBtJncnAksIGm-4" value="" style="endArrow=classic;html=1;rounded=0;curved=1;strokeColor=#0000FF;" edge="1" parent="1">
          <mxGeometry width="50" height="50" relative="1" as="geometry">
            <mxPoint x="760" y="200" as="sourcePoint" />
            <mxPoint x="800" y="200" as="targetPoint" />
          </mxGeometry>
        </mxCell>
        <mxCell id="LcAdzvYWBtJncnAksIGm-5" value="" style="endArrow=classic;html=1;rounded=0;curved=1;strokeColor=#FF8000;" edge="1" parent="1">
          <mxGeometry width="50" height="50" relative="1" as="geometry">
            <mxPoint x="760" y="220" as="sourcePoint" />
            <mxPoint x="800" y="220" as="targetPoint" />
          </mxGeometry>
        </mxCell>
        <mxCell id="LcAdzvYWBtJncnAksIGm-7" value="" style="endArrow=classic;html=1;rounded=0;curved=1;strokeColor=#00CC00;" edge="1" parent="1">
          <mxGeometry width="50" height="50" relative="1" as="geometry">
            <mxPoint x="760" y="240" as="sourcePoint" />
            <mxPoint x="800" y="240" as="targetPoint" />
          </mxGeometry>
        </mxCell>
        <mxCell id="LcAdzvYWBtJncnAksIGm-12" value="범례" style="swimlane;" vertex="1" parent="1">
          <mxGeometry x="740" y="140" width="200" height="120" as="geometry" />
        </mxCell>
        <mxCell id="LcAdzvYWBtJncnAksIGm-11" value="DB Access" style="text;html=1;align=left;verticalAlign=middle;resizable=0;points=[];autosize=1;strokeColor=none;fillColor=none;" vertex="1" parent="LcAdzvYWBtJncnAksIGm-12">
          <mxGeometry x="70" y="90" width="70" height="20" as="geometry" />
        </mxCell>
        <mxCell id="LcAdzvYWBtJncnAksIGm-10" value="Container To Container" style="text;html=1;align=left;verticalAlign=middle;resizable=0;points=[];autosize=1;strokeColor=none;fillColor=none;" vertex="1" parent="LcAdzvYWBtJncnAksIGm-12">
          <mxGeometry x="70" y="70" width="135" height="20" as="geometry" />
        </mxCell>
        <mxCell id="LcAdzvYWBtJncnAksIGm-9" value="Service Discovery" style="text;html=1;align=left;verticalAlign=middle;resizable=0;points=[];autosize=1;strokeColor=none;fillColor=none;" vertex="1" parent="LcAdzvYWBtJncnAksIGm-12">
          <mxGeometry x="70" y="50" width="110" height="20" as="geometry" />
        </mxCell>
        <mxCell id="LcAdzvYWBtJncnAksIGm-8" value="API 호출" style="text;html=1;align=left;verticalAlign=middle;resizable=0;points=[];autosize=1;strokeColor=none;fillColor=none;" vertex="1" parent="LcAdzvYWBtJncnAksIGm-12">
          <mxGeometry x="70" y="30" width="60" height="20" as="geometry" />
        </mxCell>
      </root>
    </mxGraphModel>
  </diagram>
  <diagram id="2uJ94oJ7_kGq68bboEM4" name="페이지-2">
    <mxGraphModel dx="1422" dy="762" grid="1" gridSize="5" guides="1" tooltips="1" connect="1" arrows="1" fold="1" page="0" pageScale="1" pageWidth="827" pageHeight="1169" math="0" shadow="0">
      <root>
        <mxCell id="0" />
        <mxCell id="1" parent="0" />
        <mxCell id="oxTNqDRE4Pa-PtXZfXSM-2" value="Spring Cloud Gateway" style="swimlane;sketch=1;fillColor=#b1ddf0;strokeColor=#10739e;" vertex="1" parent="1">
          <mxGeometry x="300" y="280" width="480" height="400" as="geometry" />
        </mxCell>
        <mxCell id="oxTNqDRE4Pa-PtXZfXSM-3" value="Route" style="rounded=0;whiteSpace=wrap;html=1;sketch=1;fillColor=#dae8fc;strokeColor=#6c8ebf;" vertex="1" parent="oxTNqDRE4Pa-PtXZfXSM-2">
          <mxGeometry x="20" y="40" width="120" height="60" as="geometry" />
        </mxCell>
        <mxCell id="oxTNqDRE4Pa-PtXZfXSM-4" value="Route" style="rounded=0;whiteSpace=wrap;html=1;sketch=1;fillColor=#dae8fc;strokeColor=#6c8ebf;" vertex="1" parent="oxTNqDRE4Pa-PtXZfXSM-2">
          <mxGeometry x="20" y="120" width="120" height="60" as="geometry" />
        </mxCell>
      </root>
    </mxGraphModel>
  </diagram>
</mxfile>
